<mxfile host="app.diagrams.net" modified="2023-12-03T09:59:43.434Z" agent="Mozilla/5.0 (Windows NT 10.0; Win64; x64) AppleWebKit/537.36 (KHTML, like Gecko) Chrome/119.0.0.0 Safari/537.36" etag="uWaW_whdqIManulFFyLr" version="22.1.5" type="github">
  <diagram id="Z0g6bGzJSHJPetoi5rNq" name="第 1 页">
    <mxGraphModel dx="1236" dy="629" grid="1" gridSize="10" guides="1" tooltips="1" connect="1" arrows="1" fold="1" page="1" pageScale="1" pageWidth="827" pageHeight="1169" math="0" shadow="0">
      <root>
        <mxCell id="0" />
        <mxCell id="1" parent="0" />
        <mxCell id="jPjYql4nV4WMogVL3ABk-67" value="" style="rounded=0;whiteSpace=wrap;html=1;" vertex="1" parent="1">
          <mxGeometry x="60" y="50" width="735" height="370" as="geometry" />
        </mxCell>
        <mxCell id="jPjYql4nV4WMogVL3ABk-2" value="" style="ellipse;whiteSpace=wrap;html=1;aspect=fixed;" vertex="1" parent="1">
          <mxGeometry x="95" y="120" width="140" height="140" as="geometry" />
        </mxCell>
        <mxCell id="jPjYql4nV4WMogVL3ABk-3" value="" style="ellipse;whiteSpace=wrap;html=1;aspect=fixed;fillColor=#d5e8d4;strokeColor=#82b366;" vertex="1" parent="1">
          <mxGeometry x="130" y="140" width="10" height="10" as="geometry" />
        </mxCell>
        <mxCell id="jPjYql4nV4WMogVL3ABk-5" value="" style="ellipse;whiteSpace=wrap;html=1;aspect=fixed;fillColor=#d5e8d4;strokeColor=#82b366;" vertex="1" parent="1">
          <mxGeometry x="120" y="165" width="10" height="10" as="geometry" />
        </mxCell>
        <mxCell id="jPjYql4nV4WMogVL3ABk-6" value="" style="ellipse;whiteSpace=wrap;html=1;aspect=fixed;fillColor=#d5e8d4;strokeColor=#82b366;" vertex="1" parent="1">
          <mxGeometry x="140" y="175" width="10" height="10" as="geometry" />
        </mxCell>
        <mxCell id="jPjYql4nV4WMogVL3ABk-7" value="" style="ellipse;whiteSpace=wrap;html=1;aspect=fixed;fillColor=#d5e8d4;strokeColor=#82b366;" vertex="1" parent="1">
          <mxGeometry x="120" y="190" width="10" height="10" as="geometry" />
        </mxCell>
        <mxCell id="jPjYql4nV4WMogVL3ABk-8" value="" style="ellipse;whiteSpace=wrap;html=1;aspect=fixed;fillColor=#ffe6cc;strokeColor=#d79b00;" vertex="1" parent="1">
          <mxGeometry x="170" y="230" width="10" height="10" as="geometry" />
        </mxCell>
        <mxCell id="jPjYql4nV4WMogVL3ABk-9" value="" style="ellipse;whiteSpace=wrap;html=1;aspect=fixed;fillColor=#ffe6cc;strokeColor=#d79b00;" vertex="1" parent="1">
          <mxGeometry x="180" y="200" width="10" height="10" as="geometry" />
        </mxCell>
        <mxCell id="jPjYql4nV4WMogVL3ABk-11" value="" style="ellipse;whiteSpace=wrap;html=1;aspect=fixed;fillColor=#ffe6cc;strokeColor=#d79b00;" vertex="1" parent="1">
          <mxGeometry x="190" y="220" width="10" height="10" as="geometry" />
        </mxCell>
        <mxCell id="jPjYql4nV4WMogVL3ABk-12" value="" style="ellipse;whiteSpace=wrap;html=1;aspect=fixed;fillColor=#ffe6cc;strokeColor=#d79b00;" vertex="1" parent="1">
          <mxGeometry x="210" y="200" width="10" height="10" as="geometry" />
        </mxCell>
        <mxCell id="jPjYql4nV4WMogVL3ABk-14" value="&lt;b&gt;&lt;font style=&quot;font-size: 14px;&quot;&gt;A&lt;/font&gt;&lt;/b&gt;" style="text;html=1;strokeColor=none;fillColor=none;align=center;verticalAlign=middle;whiteSpace=wrap;rounded=0;" vertex="1" parent="1">
          <mxGeometry x="150" y="150" width="20" height="15" as="geometry" />
        </mxCell>
        <mxCell id="jPjYql4nV4WMogVL3ABk-15" value="&lt;b&gt;&lt;font style=&quot;font-size: 14px;&quot;&gt;B&lt;/font&gt;&lt;/b&gt;" style="text;html=1;strokeColor=none;fillColor=none;align=center;verticalAlign=middle;whiteSpace=wrap;rounded=0;" vertex="1" parent="1">
          <mxGeometry x="155" y="210" width="20" height="15" as="geometry" />
        </mxCell>
        <mxCell id="jPjYql4nV4WMogVL3ABk-23" value="" style="edgeStyle=orthogonalEdgeStyle;rounded=0;orthogonalLoop=1;jettySize=auto;html=1;" edge="1" parent="1" source="jPjYql4nV4WMogVL3ABk-16" target="jPjYql4nV4WMogVL3ABk-20">
          <mxGeometry relative="1" as="geometry" />
        </mxCell>
        <mxCell id="jPjYql4nV4WMogVL3ABk-16" value="&lt;font style=&quot;font-size: 14px;&quot;&gt;W&lt;/font&gt;" style="rounded=0;whiteSpace=wrap;html=1;fillColor=#f8cecc;strokeColor=#b85450;" vertex="1" parent="1">
          <mxGeometry x="360" y="80" width="40" height="60" as="geometry" />
        </mxCell>
        <mxCell id="jPjYql4nV4WMogVL3ABk-22" value="" style="edgeStyle=orthogonalEdgeStyle;rounded=0;orthogonalLoop=1;jettySize=auto;html=1;" edge="1" parent="1" source="jPjYql4nV4WMogVL3ABk-17" target="jPjYql4nV4WMogVL3ABk-21">
          <mxGeometry relative="1" as="geometry" />
        </mxCell>
        <mxCell id="jPjYql4nV4WMogVL3ABk-17" value="&lt;font style=&quot;font-size: 14px;&quot;&gt;W&lt;/font&gt;" style="rounded=0;whiteSpace=wrap;html=1;fillColor=#f8cecc;strokeColor=#b85450;" vertex="1" parent="1">
          <mxGeometry x="360" y="240" width="40" height="60" as="geometry" />
        </mxCell>
        <mxCell id="jPjYql4nV4WMogVL3ABk-18" value="" style="endArrow=classic;html=1;rounded=0;exitX=1;exitY=0.5;exitDx=0;exitDy=0;entryX=0;entryY=0.5;entryDx=0;entryDy=0;" edge="1" parent="1" source="jPjYql4nV4WMogVL3ABk-2" target="jPjYql4nV4WMogVL3ABk-32">
          <mxGeometry width="50" height="50" relative="1" as="geometry">
            <mxPoint x="470" y="170" as="sourcePoint" />
            <mxPoint x="290" y="110" as="targetPoint" />
          </mxGeometry>
        </mxCell>
        <mxCell id="jPjYql4nV4WMogVL3ABk-19" value="" style="endArrow=classic;html=1;rounded=0;exitX=1;exitY=0.5;exitDx=0;exitDy=0;entryX=0;entryY=0.5;entryDx=0;entryDy=0;" edge="1" parent="1" source="jPjYql4nV4WMogVL3ABk-2" target="jPjYql4nV4WMogVL3ABk-33">
          <mxGeometry width="50" height="50" relative="1" as="geometry">
            <mxPoint x="400" y="230" as="sourcePoint" />
            <mxPoint x="290" y="270" as="targetPoint" />
          </mxGeometry>
        </mxCell>
        <mxCell id="jPjYql4nV4WMogVL3ABk-38" value="" style="edgeStyle=orthogonalEdgeStyle;rounded=0;orthogonalLoop=1;jettySize=auto;html=1;" edge="1" parent="1" source="jPjYql4nV4WMogVL3ABk-20" target="jPjYql4nV4WMogVL3ABk-36">
          <mxGeometry relative="1" as="geometry" />
        </mxCell>
        <mxCell id="jPjYql4nV4WMogVL3ABk-20" value="&lt;p class=&quot;MsoNormal&quot;&gt;&lt;font style=&quot;font-size: 14px;&quot;&gt;F&lt;/font&gt;&lt;/p&gt;" style="shape=trapezoid;perimeter=trapezoidPerimeter;whiteSpace=wrap;html=1;fixedSize=1;direction=south;fillColor=#dae8fc;strokeColor=#6c8ebf;" vertex="1" parent="1">
          <mxGeometry x="463.5" y="70" width="41" height="80" as="geometry" />
        </mxCell>
        <mxCell id="jPjYql4nV4WMogVL3ABk-39" value="" style="edgeStyle=orthogonalEdgeStyle;rounded=0;orthogonalLoop=1;jettySize=auto;html=1;" edge="1" parent="1" source="jPjYql4nV4WMogVL3ABk-21" target="jPjYql4nV4WMogVL3ABk-37">
          <mxGeometry relative="1" as="geometry" />
        </mxCell>
        <mxCell id="jPjYql4nV4WMogVL3ABk-21" value="&lt;p style=&quot;font-size: 14px;&quot; class=&quot;MsoNormal&quot;&gt;F&lt;/p&gt;" style="shape=trapezoid;perimeter=trapezoidPerimeter;whiteSpace=wrap;html=1;fixedSize=1;direction=south;fillColor=#dae8fc;strokeColor=#6c8ebf;" vertex="1" parent="1">
          <mxGeometry x="463.5" y="230" width="41" height="80" as="geometry" />
        </mxCell>
        <mxCell id="jPjYql4nV4WMogVL3ABk-24" value="&lt;font style=&quot;font-size: 12px;&quot;&gt;Shared Weight&lt;/font&gt;" style="text;html=1;strokeColor=none;fillColor=none;align=center;verticalAlign=middle;whiteSpace=wrap;rounded=0;" vertex="1" parent="1">
          <mxGeometry x="350" y="175" width="60" height="30" as="geometry" />
        </mxCell>
        <mxCell id="jPjYql4nV4WMogVL3ABk-25" value="" style="endArrow=classic;html=1;rounded=0;exitX=0.5;exitY=0;exitDx=0;exitDy=0;entryX=0.5;entryY=1;entryDx=0;entryDy=0;" edge="1" parent="1" source="jPjYql4nV4WMogVL3ABk-24" target="jPjYql4nV4WMogVL3ABk-16">
          <mxGeometry width="50" height="50" relative="1" as="geometry">
            <mxPoint x="400" y="180" as="sourcePoint" />
            <mxPoint x="450" y="130" as="targetPoint" />
          </mxGeometry>
        </mxCell>
        <mxCell id="jPjYql4nV4WMogVL3ABk-27" value="" style="endArrow=classic;html=1;rounded=0;exitX=0.5;exitY=1;exitDx=0;exitDy=0;entryX=0.5;entryY=0;entryDx=0;entryDy=0;" edge="1" parent="1" source="jPjYql4nV4WMogVL3ABk-24" target="jPjYql4nV4WMogVL3ABk-17">
          <mxGeometry width="50" height="50" relative="1" as="geometry">
            <mxPoint x="700" y="160" as="sourcePoint" />
            <mxPoint x="750" y="110" as="targetPoint" />
          </mxGeometry>
        </mxCell>
        <mxCell id="jPjYql4nV4WMogVL3ABk-28" value="&lt;font style=&quot;font-size: 12px;&quot;&gt;Shared Weight&lt;/font&gt;" style="text;html=1;strokeColor=none;fillColor=none;align=center;verticalAlign=middle;whiteSpace=wrap;rounded=0;" vertex="1" parent="1">
          <mxGeometry x="454" y="175" width="60" height="30" as="geometry" />
        </mxCell>
        <mxCell id="jPjYql4nV4WMogVL3ABk-29" value="" style="endArrow=classic;html=1;rounded=0;exitX=0.5;exitY=0;exitDx=0;exitDy=0;entryX=1;entryY=0.5;entryDx=0;entryDy=0;" edge="1" parent="1" source="jPjYql4nV4WMogVL3ABk-28" target="jPjYql4nV4WMogVL3ABk-20">
          <mxGeometry width="50" height="50" relative="1" as="geometry">
            <mxPoint x="504" y="180" as="sourcePoint" />
            <mxPoint x="484" y="140" as="targetPoint" />
          </mxGeometry>
        </mxCell>
        <mxCell id="jPjYql4nV4WMogVL3ABk-30" value="" style="endArrow=classic;html=1;rounded=0;exitX=0.5;exitY=1;exitDx=0;exitDy=0;entryX=0;entryY=0.5;entryDx=0;entryDy=0;" edge="1" parent="1" source="jPjYql4nV4WMogVL3ABk-28" target="jPjYql4nV4WMogVL3ABk-21">
          <mxGeometry width="50" height="50" relative="1" as="geometry">
            <mxPoint x="804" y="160" as="sourcePoint" />
            <mxPoint x="484" y="230" as="targetPoint" />
          </mxGeometry>
        </mxCell>
        <mxCell id="jPjYql4nV4WMogVL3ABk-34" value="" style="edgeStyle=orthogonalEdgeStyle;rounded=0;orthogonalLoop=1;jettySize=auto;html=1;" edge="1" parent="1" source="jPjYql4nV4WMogVL3ABk-32" target="jPjYql4nV4WMogVL3ABk-16">
          <mxGeometry relative="1" as="geometry" />
        </mxCell>
        <mxCell id="jPjYql4nV4WMogVL3ABk-32" value="&lt;font style=&quot;font-size: 14px;&quot;&gt;X&lt;sub&gt;i&lt;/sub&gt;&lt;/font&gt;" style="text;html=1;strokeColor=none;fillColor=none;align=center;verticalAlign=middle;whiteSpace=wrap;rounded=0;" vertex="1" parent="1">
          <mxGeometry x="290" y="100" width="30" height="20" as="geometry" />
        </mxCell>
        <mxCell id="jPjYql4nV4WMogVL3ABk-35" value="" style="edgeStyle=orthogonalEdgeStyle;rounded=0;orthogonalLoop=1;jettySize=auto;html=1;" edge="1" parent="1" source="jPjYql4nV4WMogVL3ABk-33" target="jPjYql4nV4WMogVL3ABk-17">
          <mxGeometry relative="1" as="geometry" />
        </mxCell>
        <mxCell id="jPjYql4nV4WMogVL3ABk-33" value="&lt;font style=&quot;font-size: 14px;&quot;&gt;X&lt;sub&gt;j&lt;/sub&gt;&lt;/font&gt;" style="text;html=1;strokeColor=none;fillColor=none;align=center;verticalAlign=middle;whiteSpace=wrap;rounded=0;" vertex="1" parent="1">
          <mxGeometry x="290" y="260" width="30" height="20" as="geometry" />
        </mxCell>
        <mxCell id="jPjYql4nV4WMogVL3ABk-36" value="&lt;span style=&quot;font-size: 14px;&quot;&gt;Z&lt;sub&gt;i&lt;/sub&gt;&lt;/span&gt;" style="text;html=1;strokeColor=none;fillColor=none;align=center;verticalAlign=middle;whiteSpace=wrap;rounded=0;" vertex="1" parent="1">
          <mxGeometry x="550" y="100" width="30" height="20" as="geometry" />
        </mxCell>
        <mxCell id="jPjYql4nV4WMogVL3ABk-37" value="&lt;span style=&quot;font-size: 14px;&quot;&gt;Z&lt;sub&gt;j&lt;/sub&gt;&lt;/span&gt;" style="text;html=1;strokeColor=none;fillColor=none;align=center;verticalAlign=middle;whiteSpace=wrap;rounded=0;" vertex="1" parent="1">
          <mxGeometry x="550" y="260" width="30" height="20" as="geometry" />
        </mxCell>
        <mxCell id="jPjYql4nV4WMogVL3ABk-40" value="" style="ellipse;whiteSpace=wrap;html=1;aspect=fixed;" vertex="1" parent="1">
          <mxGeometry x="610" y="120" width="140" height="140" as="geometry" />
        </mxCell>
        <mxCell id="jPjYql4nV4WMogVL3ABk-51" value="" style="whiteSpace=wrap;html=1;aspect=fixed;fillColor=#d5e8d4;strokeColor=#82b366;" vertex="1" parent="1">
          <mxGeometry x="640" y="150" width="10" height="10" as="geometry" />
        </mxCell>
        <mxCell id="jPjYql4nV4WMogVL3ABk-52" value="" style="whiteSpace=wrap;html=1;aspect=fixed;fillColor=#d5e8d4;strokeColor=#82b366;" vertex="1" parent="1">
          <mxGeometry x="670" y="140" width="10" height="10" as="geometry" />
        </mxCell>
        <mxCell id="jPjYql4nV4WMogVL3ABk-53" value="" style="whiteSpace=wrap;html=1;aspect=fixed;fillColor=#d5e8d4;strokeColor=#82b366;" vertex="1" parent="1">
          <mxGeometry x="660" y="170" width="10" height="10" as="geometry" />
        </mxCell>
        <mxCell id="jPjYql4nV4WMogVL3ABk-54" value="" style="whiteSpace=wrap;html=1;aspect=fixed;fillColor=#d5e8d4;strokeColor=#82b366;" vertex="1" parent="1">
          <mxGeometry x="640" y="180" width="10" height="10" as="geometry" />
        </mxCell>
        <mxCell id="jPjYql4nV4WMogVL3ABk-56" value="" style="whiteSpace=wrap;html=1;aspect=fixed;fillColor=#ffe6cc;strokeColor=#d79b00;" vertex="1" parent="1">
          <mxGeometry x="700" y="205" width="10" height="10" as="geometry" />
        </mxCell>
        <mxCell id="jPjYql4nV4WMogVL3ABk-57" value="" style="whiteSpace=wrap;html=1;aspect=fixed;fillColor=#ffe6cc;strokeColor=#d79b00;" vertex="1" parent="1">
          <mxGeometry x="730" y="200" width="10" height="10" as="geometry" />
        </mxCell>
        <mxCell id="jPjYql4nV4WMogVL3ABk-58" value="" style="whiteSpace=wrap;html=1;aspect=fixed;fillColor=#ffe6cc;strokeColor=#d79b00;" vertex="1" parent="1">
          <mxGeometry x="700" y="205" width="10" height="10" as="geometry" />
        </mxCell>
        <mxCell id="jPjYql4nV4WMogVL3ABk-59" value="" style="whiteSpace=wrap;html=1;aspect=fixed;fillColor=#ffe6cc;strokeColor=#d79b00;" vertex="1" parent="1">
          <mxGeometry x="710" y="225" width="10" height="10" as="geometry" />
        </mxCell>
        <mxCell id="jPjYql4nV4WMogVL3ABk-60" value="" style="whiteSpace=wrap;html=1;aspect=fixed;fillColor=#ffe6cc;strokeColor=#d79b00;" vertex="1" parent="1">
          <mxGeometry x="690" y="235" width="10" height="10" as="geometry" />
        </mxCell>
        <mxCell id="jPjYql4nV4WMogVL3ABk-61" value="&lt;b&gt;&lt;font style=&quot;font-size: 14px;&quot;&gt;A&lt;/font&gt;&lt;/b&gt;" style="text;html=1;strokeColor=none;fillColor=none;align=center;verticalAlign=middle;whiteSpace=wrap;rounded=0;" vertex="1" parent="1">
          <mxGeometry x="680" y="155" width="20" height="15" as="geometry" />
        </mxCell>
        <mxCell id="jPjYql4nV4WMogVL3ABk-62" value="&lt;b&gt;&lt;font style=&quot;font-size: 14px;&quot;&gt;B&lt;/font&gt;&lt;/b&gt;" style="text;html=1;strokeColor=none;fillColor=none;align=center;verticalAlign=middle;whiteSpace=wrap;rounded=0;" vertex="1" parent="1">
          <mxGeometry x="665" y="220" width="20" height="15" as="geometry" />
        </mxCell>
        <mxCell id="jPjYql4nV4WMogVL3ABk-63" value="" style="endArrow=classic;html=1;rounded=0;exitX=1;exitY=0.5;exitDx=0;exitDy=0;entryX=0;entryY=0;entryDx=0;entryDy=0;" edge="1" parent="1" source="jPjYql4nV4WMogVL3ABk-36" target="jPjYql4nV4WMogVL3ABk-40">
          <mxGeometry width="50" height="50" relative="1" as="geometry">
            <mxPoint x="590" y="40" as="sourcePoint" />
            <mxPoint x="640" y="-10" as="targetPoint" />
          </mxGeometry>
        </mxCell>
        <mxCell id="jPjYql4nV4WMogVL3ABk-64" value="" style="endArrow=classic;html=1;rounded=0;exitX=1;exitY=0.5;exitDx=0;exitDy=0;entryX=0;entryY=1;entryDx=0;entryDy=0;" edge="1" parent="1" source="jPjYql4nV4WMogVL3ABk-37" target="jPjYql4nV4WMogVL3ABk-40">
          <mxGeometry width="50" height="50" relative="1" as="geometry">
            <mxPoint x="620" y="440" as="sourcePoint" />
            <mxPoint x="670" y="390" as="targetPoint" />
          </mxGeometry>
        </mxCell>
        <mxCell id="jPjYql4nV4WMogVL3ABk-65" value="&lt;font style=&quot;font-size: 14px;&quot;&gt;&lt;b&gt;Latent Space Z∈R&lt;sup&gt;L&lt;/sup&gt;&lt;/b&gt;&lt;/font&gt;" style="text;html=1;strokeColor=none;fillColor=none;align=center;verticalAlign=middle;whiteSpace=wrap;rounded=0;" vertex="1" parent="1">
          <mxGeometry x="612.5" y="265" width="135" height="20" as="geometry" />
        </mxCell>
        <mxCell id="jPjYql4nV4WMogVL3ABk-66" value="&lt;b&gt;&lt;font style=&quot;font-size: 14px;&quot;&gt;Sample Space X∈R&lt;sup&gt;K&lt;/sup&gt;&lt;/font&gt;&lt;/b&gt;" style="text;html=1;strokeColor=none;fillColor=none;align=center;verticalAlign=middle;whiteSpace=wrap;rounded=0;" vertex="1" parent="1">
          <mxGeometry x="95" y="265" width="146.25" height="15" as="geometry" />
        </mxCell>
        <mxCell id="jPjYql4nV4WMogVL3ABk-68" value="&lt;font style=&quot;font-size: 12px;&quot;&gt;Get the similarity of X&lt;sub&gt;i&lt;/sub&gt; and X&lt;sub&gt;j&lt;/sub&gt;&lt;/font&gt;" style="text;html=1;strokeColor=none;fillColor=none;align=center;verticalAlign=middle;whiteSpace=wrap;rounded=0;" vertex="1" parent="1">
          <mxGeometry x="271.25" y="170" width="67.5" height="50" as="geometry" />
        </mxCell>
        <mxCell id="jPjYql4nV4WMogVL3ABk-69" value="&lt;font style=&quot;font-size: 12px;&quot;&gt;Get the similarity of Z&lt;sub&gt;i&lt;/sub&gt;&lt;/font&gt;&lt;font style=&quot;&quot;&gt;&amp;nbsp;and Z&lt;sub&gt;j&lt;/sub&gt;&lt;/font&gt;" style="text;html=1;strokeColor=none;fillColor=none;align=center;verticalAlign=middle;whiteSpace=wrap;rounded=0;" vertex="1" parent="1">
          <mxGeometry x="530" y="171.25" width="70" height="47.5" as="geometry" />
        </mxCell>
        <mxCell id="jPjYql4nV4WMogVL3ABk-70" value="" style="endArrow=classic;html=1;rounded=0;exitX=0.75;exitY=1;exitDx=0;exitDy=0;strokeWidth=2;fillColor=#cdeb8b;strokeColor=#CC99FF;" edge="1" parent="1" source="jPjYql4nV4WMogVL3ABk-68">
          <mxGeometry width="50" height="50" relative="1" as="geometry">
            <mxPoint x="280" y="360" as="sourcePoint" />
            <mxPoint x="340" y="330" as="targetPoint" />
          </mxGeometry>
        </mxCell>
        <mxCell id="jPjYql4nV4WMogVL3ABk-72" value="" style="strokeWidth=2;html=1;shape=mxgraph.flowchart.annotation_2;align=left;labelPosition=right;pointerEvents=1;" vertex="1" parent="1">
          <mxGeometry x="334" y="343.46" width="21" height="40" as="geometry" />
        </mxCell>
        <mxCell id="jPjYql4nV4WMogVL3ABk-75" value="&lt;font style=&quot;font-size: 14px;&quot;&gt;0&lt;/font&gt;" style="text;html=1;strokeColor=none;fillColor=none;align=center;verticalAlign=middle;whiteSpace=wrap;rounded=0;" vertex="1" parent="1">
          <mxGeometry x="355" y="373.46" width="19" height="25" as="geometry" />
        </mxCell>
        <mxCell id="jPjYql4nV4WMogVL3ABk-76" value="∈&lt;b&gt;A&lt;/b&gt;&lt;br&gt;∈&lt;b&gt;B&lt;/b&gt;" style="text;html=1;strokeColor=none;fillColor=none;align=center;verticalAlign=middle;whiteSpace=wrap;rounded=0;" vertex="1" parent="1">
          <mxGeometry x="500" y="324.57" width="23.5" height="40" as="geometry" />
        </mxCell>
        <mxCell id="jPjYql4nV4WMogVL3ABk-77" value="&lt;font style=&quot;font-size: 14px;&quot;&gt;else&lt;/font&gt;" style="text;html=1;strokeColor=none;fillColor=none;align=center;verticalAlign=middle;whiteSpace=wrap;rounded=0;" vertex="1" parent="1">
          <mxGeometry x="387.5" y="378.46" width="60" height="15" as="geometry" />
        </mxCell>
        <mxCell id="jPjYql4nV4WMogVL3ABk-79" value="" style="endArrow=classic;html=1;rounded=0;exitX=0.75;exitY=1;exitDx=0;exitDy=0;strokeWidth=2;fillColor=#cdeb8b;strokeColor=#CC99FF;" edge="1" parent="1" source="jPjYql4nV4WMogVL3ABk-69">
          <mxGeometry width="50" height="50" relative="1" as="geometry">
            <mxPoint x="332" y="230" as="sourcePoint" />
            <mxPoint x="610" y="330" as="targetPoint" />
          </mxGeometry>
        </mxCell>
        <mxCell id="jPjYql4nV4WMogVL3ABk-82" value="" style="endArrow=classic;startArrow=classic;html=1;curved=1;entryX=0.5;entryY=1;entryDx=0;entryDy=0;strokeColor=#CC99FF;strokeWidth=2;" edge="1" parent="1">
          <mxGeometry width="50" height="50" relative="1" as="geometry">
            <mxPoint x="490" y="380" as="sourcePoint" />
            <mxPoint x="590" y="360" as="targetPoint" />
            <Array as="points">
              <mxPoint x="550" y="390" />
            </Array>
          </mxGeometry>
        </mxCell>
        <mxCell id="jPjYql4nV4WMogVL3ABk-83" value="&lt;font style=&quot;font-size: 14px;&quot;&gt;Matain the same&lt;/font&gt;" style="text;html=1;strokeColor=none;fillColor=none;align=center;verticalAlign=middle;whiteSpace=wrap;rounded=0;" vertex="1" parent="1">
          <mxGeometry x="560" y="378.46" width="110" height="20" as="geometry" />
        </mxCell>
        <mxCell id="jPjYql4nV4WMogVL3ABk-85" value="" style="shape=image;verticalLabelPosition=bottom;labelBackgroundColor=default;verticalAlign=top;aspect=fixed;imageAspect=0;image=data:image/png,iVBORw0KGgoAAAANSUhEUgAAAKcAAAAfCAYAAACCj930AAAK5ElEQVR4Ae2bC1BV5RbH9zAMw+ggc3UCpyQGTW91q3vrxu1qpmkmvupCSWpOvojATKsbqKSGpUd5ePGBoAioaSSUj5OmUAYmWFImEkfxCSiMvIbHwJlz5syZPfO7c3gc9z7vg+AgwsyZ833fXnv917f2f61vfd/ZCPT/9Xugl3pA6KV29ZvV7wH6ydktJGhGdU5FS7foelCU2PdZ18mpraS4IJ/8fMmnoIDiSs2D4t32eYpVZH8RRvTxKsQHa+bWZ+sQN0SqvltFyNocqq04rsvk1F/ZzHT/+SRk5XCq4AzZCTPx/ctYok83WTe6z13R8mfSHGbGnuMBC0mbT9JxbjSTvzaQOTtK0FrQ2GVyan9VsDK9si1baEtSmOk3gjm7L1kEsYDbJ4b0l5MJnLCKAnWfmE63TcIpbqjziBwbxM5rejP8LpNTbCynrE5ErP2BlaOHMjrqR+qspGcz1D4xUMuhkL8RlHqzfzk3eZ7OcUNP6ebJjHrvCPUmerpMzjY92oukvjUcv+AUVIa83PAdyXsuYh4DJqh9oCveSiPIZzb7avrAZHpiCk5wQ6zezcxhM9ldJc9ujpFT30JDk0lVINZx8tMxeP8rkpyadqXN2REs3lFx/2QSTSutXYokkcpdr+ExNZmbcn8CWmqvqygpKbH4UV28yu3W7mDDvcKxYKuopqlJY/acRa0WnUHcWW6IZWybPJCg9GoZmE1yastPEBexHMXmRJK2xrNu9QYyL7aX/o1Hl/CY4MXEJQpiYxVERy5koq8387PukwMV3Tk2jh/MhLgSY6bXV5/hy+iFTBkzgbAvLxnHZR5r67RweJE3T0cVmNfYuvNsGDcAwWUgfi/MYNb8UMLDw3jTfwgugoDg+iiLsurMVTo7cq9wTOzSlmahWBVD/NLpvLLiBB15CV3RFqZ6ezFtm4pap7mh5VTE4zwcqkQat9bJqfmdDQHTiS/uyJhiLflbZvHqJzn3bmeqLyUpaBienh54eDj48fRk2MwULNTXMjfrL21iktvDvHuo2RDq1BSksyE+gzMn1vPqM+OJONK+2ZPd1NnRlxAzRmDGLnmkt13W5LHiGU9GR/1EbUdWVf+RwLSHXREEN0Yt+IrrXcrWneAd3/cKRwqrKyIpKokiDTRlzmOwVwiHOzaD4s1MFo0U8F1yHOf3hyI3twcgjIvnksQ3Vsmp/TmKZ33m8XVth3W6Yna+G8zyg2U2Mop0Jt3RbuZ81hZiYjaycaODn5gYtnx7AQPlrP+JVO8JZtDAQFJu1lG4T8GG/edotH6D/Iomh6W+g1lwyMJjUCsJGxHA5tJ2L4t1J4ka7YmL4IKHfwTZnalGrtH53r3CkVim/jGaFRnViDRzdLEfbi/FcKFtHTcIidzaFUxATHH70i65z5Fma+ZcBvgt40fJmZx1chau5d/urjz0VAALImJI/b6EBrP6yhHY3ijTgjLcB8F3MvPC/0tyQZ1Z/WTTavVhFg15hPDjEk923qAtImvLN1wwLDj6crLefRJ3FwEXr8nEFloqeUQqchJJOHTZuaB3GqfTQAOPKsnduQ3lVUmakly21tRWXKHMEI+NSsJ83JgQr5LZ3JT1CRFHLc3RmsY742plKF5DQjgiiXer5IRGCtM+5g3/YQxwERBcPHn2/W+o6AsE1Rbw6bNujJwbS+pWBZ9+uJDXx41nTvRBVNKi547v5C21klCvIYRIPSmXADQUJwXi42qoM0cwJ/1yW0ZR377C5UopSAsno98gNE3VpYzjOI7EwNZc1s0OI+1PY9qTXLTfbPg2hEfcXzWuDu13aCnYuIaMLq4M6iMhPOT9Hkq75BRbaWruNFxDdXEOKR+8yBCPaSSaFUxORr4zUasvJXHGEFwND9iwmXDk4+rKkNeTuWIjKXTWmyEH7/yapbu2g8DBHkzffr09G6gbaJA4SvbItKeIGCUQvM96lmg8vZbxg10QXAbwj6VK2k9JNOQuf44pCbY2WzIku517hXPHkFaOLfbB9aUYijspYriozmP9qgPGDdIdecdaLRmzcRsVwSnJoZB55tRfY/fbw/F4/CNyJKuWeGsngb7z+Nr0pBQnI9+pqDXUnAnEOFpvGuTs1pwd9eagN0mXnqupj/G+jzuTNhmII1KR/jnbSqwwXCxj6ySBSVtuWCwHxEolH/x9QFudOfjlz8nvjAH9VbZN82LW3g4n6mooyjnG6euWK2RtTTk3m6wvVQ7jGPmhp+5SHsdyLlAtJVbHdXt4bWJiGYlT3fCW7axFqg+vJy7XerAaTbDY0HMtYSLC5ETKJdM1J6cmj5UTA1iW9iv1RkEdV1PnMmXNz33gzZv2etPtlU1clHKv9RCLvL1YeLAV9FfYtT7VRvbVkvvJKHyXZJufXOhKSZs9HFdBwPXRIJL/7IhwTTk/xAYx0t2P94+qQX+VzOjVpOVsZobndFJMDkz1qq1MGSww6KX1nJVkE+OzdRTHeEMrv6euRvH1L/wSM5FH3slE+vuBXTyjnkayFnjjtSCLzpgTb58gVnHYwpmv8SY7DTXHFz/Kk5E/y47mzMmJjmsHNxKlSOIr5Qm+/3YP2xURfBSbTbmpk+xEvtwi21Erl+3Bnq4IxVgPXlScM6nx6smJGk9AxF72xX3G9tMNNo1oPLiAoaMVkt1qu7j6+DJGurkgCC64D32C5/39+efTI/Aa6NJ+zunuz5ozWrR5ClZl1qApiOQx12D2mxx9iuUHWPL8cP76VDAJKmkUOYfTOQm9agdRW39DjZ7L8eMQpiZTaUw+YA+vU4/hW6PaTcjYAD5MOYIyIxGFYg+/3MlkUlHH2roi1r0wjFClPPNaIGeHvtZqrhQVcq60GrVkEkY0O5FvlGtr2I5auWxP9/TU37hOrfnzNhROVJWc50qdhTXP1Kzm7wl/bALx0oM5UxlbfVFEpIXsxUPxnH/I6jFWw4FYtnZx4yKDb8MzjNSQHujG818UmQRnu7TDePp6rv1xlvNlTbIduwzTwY5eFcfLjy8lR7pPhK6/bGwv8qV22Ytaqez909ZSuHYMY6J/ky1FTtlfn8VcDx+WnmxFV1lBlVnAqMmLj+OEPKE4BWEm3KokxNuPZT9INhRGoR7AM+q21tByds1YJsaYB4v1zGlNV+e4g5HfJu5g1Haqvm++G3L4eMI77DepFx21vzHjLYQnojirucXe5es5bVI26UrTWLWl0LyudRTAgpy2YAVPDppLpoVfHHoCz4IJsiGxfC9vT4zkJwt7wq6T0wBhN/JldoDNqDWRvU+69Xmf8Vb4AcrMsp79CbTmRvHcuDBioyPYlH1bvvMXb6H833bybZe+9kFkEnouxY1FmGLhhZUewZOBm3f0N9gfNot1+RYi5W6WdQOStcjXlewnMmwdx6QVt+F9HRtRa275/TKi44ZSwcodhV06yRCba6ntzmXbltvEKlJfd+UFRfFd14m2YBy71syZ5ChiT1RYteWuMqe1yG9ShuMjCLyWKH0R10bUOjabXi2l1Zi/QtYrDNZdYOeCIKJPqtFeiOVln/+QYusXintmtIhGY1LHmGDfFTkNuqxFvnhrF/Fpkn/66lVRa+KFvtzVnSfpnUBCV0fzYVgkab9ZXkJ7owvumpyWJ6VDtWsjey/+0Uuj1rLV/aO9ywM9Qk6xJpcM5WW093HU9q7H9GBa0yPkfDBd2T/r7vZAPzm726P9+rrNA/3k7DZX9ivqbg/0k7O7Pdqvr9s88H+IxJP5VxYSQwAAAABJRU5ErkJggg==;" vertex="1" parent="1">
          <mxGeometry x="577" y="333.46" width="143" height="26.54" as="geometry" />
        </mxCell>
        <mxCell id="jPjYql4nV4WMogVL3ABk-87" value="" style="shape=image;verticalLabelPosition=bottom;labelBackgroundColor=default;verticalAlign=top;aspect=fixed;imageAspect=0;image=data:image/png,iVBORw0KGgoAAAANSUhEUgAAAHEAAAAbCAYAAABLEWDsAAAIwElEQVRoBe2ZCUyUZxrHJ4QQowEiRjBV1misVeyadNetWbyK9Vxcha50ta5dFBHUoHHFVYotHkzL4ap4H+CBYcWtx1QrsrrigS4gCgqLInITucIRZzKTyeRLfpsR+OabmY9hsB26m/IlhPd8/s/7/J/3eZ/3HQX93/+9BRSOXUE7xfnFvHYsyM9Aum07Oo5EoY7rO8OIuVaH8DMwc++XKNBa9ojch/nk5+VQWK0GBBqf5ZKXn09ebgkNouEE6r6LJmR7JvVimwnRQSTqeHpoKYvj89GasPpLZhYQeJXzD/Zvms0IxXusvdIE6MnbMRmvSUuITPyOZwbphHbubQ9g6ZEidNJmwCEkGp4fJsAvmmyNBVp/VcYCLdzZ4cf4hfvIe3GFmIhE7jbJbDfjTE0Wm6cGcrTMjF1HkNjIxZAJBJ6o7g+jMpTJNhkqOL96Il4+q0it6YbANxMNPNs7h7GrL9MsEfSj70ShJplA7yWkNkhQ+ou2LaB9SkrkWkLmj2PK1kzJWWg9Tag/yeIRizlZZyJbnkStGrX5jrWWJtsiUHv897jOP0y1CePNSF1jBaUvyqmsrqG6spyy0lJq2joG6ZsrO/uqqSov40Vtm6z03jT2NZ6sboKGtjatVUQSdDr0XRO0JaRFrufQIzVC4w22+o5l0f5HGNMc2U+oYP+cQQSm1Ivd1iTq8/lmhgd+CUV08Wiov8+ZmBXM8/Uj7EyJ2C5KEQuvubTSi19GZVscvgbKT63Cd5IPwwc6oVA4Mcj7Q7ZmGA9NgVepyxkxwAmF0yA8R41jSlTmD0yI+hpPNIBY0D07jzI6jsQIfz7ekiHuLn3BPuZ7efK7/Y/JTV5HoO8YBk/YSOab5LQR1VofBg5+nwXhMZx7KlItygUdtyPH8U6oSiTaikRDyW5mubzDqovtbwzckJ3C14lp3M+IZfbEGURerrXyLBHBUEScr4IFx01eIva9Kah5lLQIb2cFzqODOPq0I3fVl6WxcuJEgk8V/ch3yr7G61ytvoBDUYco0EJb+ud4eIZwqTPJE6rTWfmugpHrrvF2eZ9A9cG5KKYnUtK5yyxIFKg/FYTboACOVTeRm6rk67P5tJoz0X1Nm0nESA+CL9pQT6jj6sbf4ObkhNuHm7hSdJ2o6T4EJD3shkCBqswD7Ln43EYE6F4leo0nkSXUcuvoflQvumKSpM9GUXMjhi1p9Qi0c2XNKFymxVEobiqBmuNBzI17YgqpNmTJdanTlzFw1HpudN7fLEh8jSrcG8XIOXwe/hcOZzd1v+vkpGsusXLIcMKv9XA71BRy6JOROCuccBvszYxtN2m0OENN4l9zM+YTQpOL33rR9ArPhIz6FruWhJEsG9Yk4yyKuqpSKox+3KoizNsFv8RiMwdsO7+JyCtv/46lUYXiOSSEy517xZxEXTZffODCu8viOZGk5IsNK1g4fQZLYy5Q3O1JK1mBRkWo5xBCuqRLuiyLQk0qy0Y4o3By5YOIy1T3ztktxfVY72s8o0It34YwfMBs9prd2nVkf/MlaabnmB51txyguRzCUK/VqORI7DoPQy6YskN92RECPFzxP/iyw5s0LbR0Fy11t4kcqyAotQcvE+r4PtKXCf7L8R/tgsJ5OP67c63Dqb6Bgsyr3H1pPJ9/wGcvnghhoKkki6uZhdSLYVDstLOg5uoab5ynxfFEKkOTRWz0OTHRsVOY2bDXaUtwGRvJ7c6nG8lO7DwP3f5AiuQOguYqa70HMGu3MSsVqErZwf6ibraNUEHSLAWz9pXbCMNt/DvRnwmzd3Kn2UDjzWimeTjhNHAi4d9WmsKO4QXpMdtIztzLAnd/jlneWQBdQyXVndcUs1WaVezEE+eoeXhiG8q/P+BB3EyGL0/H8sprF65QwYH5LnhJskhjJl5/KZaEWz04uaiLXMFA2Z6ZKOYcoLLzCJKQ2HEeuny8m/9IOVJfZKWXJysuqMFQyvHYE5RK+81wdNzaNJaR667LXhEEdSW3k5YyfsxSTorJgo7np//EWBcnnIfNJf5BRxTQZSmJTm9Am72ZMc5BnDU+LUo+Q3ES8zwUuE2LJcfyMbFzXG/wukQbio8QlZSHBgPPE6ejmH+YWsl5bQ9uh6xWzgd74Rl8nq64JrzKIF55yeoO3YVt338N19b8Ap/Nd8RrnIlEfQHKqa5MUeZbJBDNZEbNYG7kaVITvuLg3RabWK0Xghn2W6UkGzMO13In6te4uw1myFAP3Ae5MzO+Kztr4PRnXri5uuMxdChDjX/Dl3GmXkDgNdfXDMP9zxetMmSh8hzrJo3mvfeD2FNs6VVvgdflJIIR1/g1kBLgwqSdBWb2sI1rbhpt8UlCps5lw7HLqNIOoFSe4kGzxCPMh9tX0xewa/IIQlWm3WwiEQPN5S9ptLTHG9Ea6ooeU9okDe7dYLZ/T/gYPxK7LjHdDLOrufk8y1y9ibipRl9bRZ2Mbi3n4knqZfZoF7ZaRYjXKNb/Uz7TthvX0EzZoxweV7SZjgq7FJAfZChO4KNxER2PA51DJCTKT+p9q47c7b74xuSJ2733MjpmtKZ9imJ8FDnaGk7/NZa7VmFTQ1ZiAhkmp3xbKKt5uuwt+LgtI132kuw4XCtFzBp05Hw5lZlx5tHBASQac+tMNvot56xMMmKmUw8V9a0ofjU9jPiYSHZff2WVLOmfJRO9L1f2/O1BdA/dBkoSpqKYZ/0GbJzoOFzbagmVp/ls5mb+ZZGsO4ZEoDnrKz4NP0eFTAi0rap5r9DeSKPcThNqUP3tIPdsH9HmwuytCXWcWOjMZOUT6xDoSFxb+hnKORv2R3bdsw4NDiPR+Ct1uUrJ1iMy9z9byv5UffpCjgYHEnNTg64wno+8F3Gs+zS8j7Vs5/7hKOIzqqydylG/7EtXqNNa/xQj7f+fKesfc2h5AKHbYtgQtpnkPGuP/+l0FdBqrRICUR0H7kQRo7/gYAv0k+hgA/eF+H4S+8LKDsboJ9HBBu4L8f8FIh7BFQULAL4AAAAASUVORK5CYII=;" vertex="1" parent="1">
          <mxGeometry x="360" y="333.46" width="93" height="22.22" as="geometry" />
        </mxCell>
        <mxCell id="jPjYql4nV4WMogVL3ABk-88" value="" style="shape=image;verticalLabelPosition=bottom;labelBackgroundColor=default;verticalAlign=top;aspect=fixed;imageAspect=0;image=data:image/png,iVBORw0KGgoAAAANSUhEUgAAACAAAAAdCAYAAADLnm6HAAADtUlEQVRIDe2Vf0iUdxzHH0JiBCYxhoMloxFbuRg0GkVFbEFYq5UFbTGpBdVsblnR6TzmuDV3ld1YpbNpXlus6a5WcMvIZxNFF80776aWqWmUv8g7xR94csfDwwOvcXa/vHt03eGIwb7/PM/z+X6/n+/r8/6+v99H4Ck34Smvz38NQGG4046lwYbNWk9TtwtQcLZZsNpsWC2tOJToNI1SAYVH9ZcpOLKO+cIrZFwbACSsR5eTuGwHGsOvtMn/KoA/+RC1R99i8ebTWDuuoTtgoG4gytJ9qaJUwA8AyA+49OFrJCbv5cee2Bb3ZosdwH2b85oM9mxYxKocMeq995cyPYA8xtCIxz82+HS3UqbJpMjuQnH+Ts7Kl9lSYMdryWibKoDn4Q1OarLRnyqk6IyBvNxjmO66JwxnN37M1pULmffqYcSJQ+DEnJHMnHlL2LRfx8+3pagYIgHcDRxL2Yih2Ve54uSP0++x7oiIF2GmWwSAp1bL0qRdlDt9S0nNFO/dTvaVB0R5wp6INRLA8gUrnonjuSUp7NacoPT6HYZiN/k/QkQAwDAW42G2vTGfObMEhFkJLM24TFcEhEKXWMg3V9ufTBmll+riAswdk3WcDKC4GBn1m8hNf7NIySereDb+bQrvT54IY1TptrHP2IJ/xrTluqrJ25GOMcykQQC5k+/ff4n4RYcQQ9ym9BST+uIuygenTR9zZxDAXUPO2hQyjX8yGJBboqM0jfWf1zIWuoTkoFGsoO7+aGh0ineZgdYaKsQm+lWkCgIg0XnlOFp9ET+Zb3D9lx/4Vq/hUH4lD0PvIrkDky4Xo3iKTQkbKekO0KoAuGgozUVffotbJ9bywk4TjrBRIQC+Hlc/9xot2Nr6GVfJ7anR85nJgftmFgvjtnPR+0Ocoskt36E9Y2UcmXbDGoQNZ+kNyxkJMEWyQFhRUBij8qPnSfjgKsOBDpWXibHeuIPzqbNZ9mVjhGGjB/DmG7xEWnwSB6pcSL1d9IUfkHAWl5k9iQvI/C3E3b4xMQEMl72LsFhLvbuHC9lfUefziHTnIlnpeVSE6ey5+SnJc9MwqcgVE4CrWsvra9LJ12n4uvIR/m0dMe8nSRB4p7A7EAOZ1pOrEdafRc2vMQF41VNGnTgnnc3Hmio95zAY+4IASh+lm+NYrm9WvTFjBgjf5sffEi3njnPhrp3i3VvRVY3jacrnzaQtlNxTN8qMAiiOasrM7Xikvyjamcq+XB0H07MwWlU231fBjAKoqzJ99H+AvwGP750tDsS0+wAAAABJRU5ErkJggg==;" vertex="1" parent="1">
          <mxGeometry x="300" y="347.65" width="34" height="30.81" as="geometry" />
        </mxCell>
        <mxCell id="jPjYql4nV4WMogVL3ABk-89" value="" style="shape=image;verticalLabelPosition=bottom;labelBackgroundColor=default;verticalAlign=top;aspect=fixed;imageAspect=0;image=data:image/png,iVBORw0KGgoAAAANSUhEUgAAAC8AAAATCAYAAAAAn1R6AAAFIUlEQVRIDdWWfUzUdRzH2VqtVjJR1CaCGc6NpFkOXbkop1GrOS1loS6Y4gPJMFmFaKkVQSLZg/kAMik06MGTO8AnkEMQMlCBKfKMPNwDJ3B3yHHHHcfd/V4NRO94cuDWmr+/fr/P9/N7v9/f9+fz+f5+TjzCl9MjrB2nXn0HKrkMuUKJUiGnubERlc6GYLOgb5fT1CxHoZAjU7ai6zY/9F57tEoam2QolC0o5M3IFCruGG1YTV20t8iRyRUo5DKaWrRYrbYx8Tipi1P4NNAPb49pTJzgzNQ5vnwjNWDVt5IT8z4ek1xwnT6L+f4RiK7IsY4JdmiShWZRJEt8ffCc4oyzyzTmrwjnVLkJQ3UWXwYsZOrEybh5voDvtuPIdT1DAUZ8HmgbI7WnIlnkNoHHZy4noUyHpaeTm+mxbPDfRFJRC0PhBJsVyxgdsjN3cTF2Ge7PTMT7vd1kN3TTo75J6u7NbNyRwNUW/ajmCIKtvyKCYEez97xNwz8/BzHH5UkmL/iIhJNH+HhNID9Km4YJByvNucf4QXSDXjvWmO7MuhqSw15j+pTnWLz+C+JiIgiN2E9ufceowhGMqKoKyJRIqdHYa28X30dtakQSuYSpTzyGy4x5BB8ppmPE9jNRfjKOuPSqcYtHsNDZICXK35tJTz3NrNfXk5DXiNHB0WEuWLtoLDnD7ylZ1HaMJl7oobUwlne9PHjW1Y2lYYlcaTEMdkToxdChQdtlwrGEwwhHDQj06mVI40N4deY0ZngtJvxoLs06MyPpF2y9GDq1aDu7sQxJcHC+F03VaaJD1hKy9wg7V83D3e1F1kaJqFKb7gILRlrryiiUijh6UMxNzeBJEKwWekwmzENZHDZis+iolCYQGbaFTz6P4INXZjPbZxV700pQGy0OmSBYjSgrisjPOY84TUJejWZQpfvFCxYDtyvOsW9LIBv2nadJb0Z5NYWtfl7MnP0G4fFSZDoLVnU5Z0XpXDj9PSvmrCa+qstOZjEgv5bBwbgDpBU1oR+h3QTzHarzfyVywyai/yxFpVZQkLyTd7yfZ+6SEI7l1aPvtb9oVBbyR7KIvLxz7I9cR2hSMV0D7ts663Bqv3GewzGfEbzSF0/3eWxOqcOCgFFbyaF1c3F1dsXT523WbdtHqiSLyzUyyo6HssBvF5faTPfFCyY1pakRvDnXh8AYMTX3WPozemnMPkRE+BYC/F7C6+X3OFDQjhUzTQWJBPu64zLJg4XLggjfkcAlVXd/pc2t5ZRWt9FWe4Go0JVE/lWJaUC8tSUHpy5lBflZmYglYsRpYi5Waujbu8WkpeJSOmKxGIlEgiQ9h2u1tzHoK0n8cCn+3+XSpmpDe29+bGY6FRXk/ZZEUuoZytT3FvrUW1FX5pGW1oclJuNMNtflemxY6VRV83e2BLFYcpcno5C6zoGPoSAgCN3cKoxnq38QySVd9+dCMLXj0PP3TXzgjbHsGMve2khC8Q3OxSdzzW7+XZFVpUhz8qnvHjJdD0QdfbGvokW/RLImIJbL2sGY4xd//QRr14QRFf01P4muo3fAs3WrKMvL5GzBrQcffaNrHbZi1jaQuieA5XtO0+pYTBi/84K1B12rEsVtHd1m+3AhmGlvKCErM4d6nUN8mJzxBGzcac4nOmgR20UNDDqLbBqcHv5XazwixplrriAxeBV7c9qozviK1St2kasaYnuf8w5VHyfDf5huruZE+Ea2x+4n5tvD5NbrRyQbd8+PiPI/BR9p8f8CIsy7fn/CmuEAAAAASUVORK5CYII=;" vertex="1" parent="1">
          <mxGeometry x="463.5" y="332.69" width="37" height="14.96" as="geometry" />
        </mxCell>
        <mxCell id="jPjYql4nV4WMogVL3ABk-92" value="" style="shape=image;verticalLabelPosition=bottom;labelBackgroundColor=default;verticalAlign=top;aspect=fixed;imageAspect=0;image=data:image/png,iVBORw0KGgoAAAANSUhEUgAAAC8AAAATCAYAAAAAn1R6AAAFIUlEQVRIDdWWfUzUdRzH2VqtVjJR1CaCGc6NpFkOXbkop1GrOS1loS6Y4gPJMFmFaKkVQSLZg/kAMik06MGTO8AnkEMQMlCBKfKMPNwDJ3B3yHHHHcfd/V4NRO94cuDWmr+/fr/P9/N7v9/f9+fz+f5+TjzCl9MjrB2nXn0HKrkMuUKJUiGnubERlc6GYLOgb5fT1CxHoZAjU7ai6zY/9F57tEoam2QolC0o5M3IFCruGG1YTV20t8iRyRUo5DKaWrRYrbYx8Tipi1P4NNAPb49pTJzgzNQ5vnwjNWDVt5IT8z4ek1xwnT6L+f4RiK7IsY4JdmiShWZRJEt8ffCc4oyzyzTmrwjnVLkJQ3UWXwYsZOrEybh5voDvtuPIdT1DAUZ8HmgbI7WnIlnkNoHHZy4noUyHpaeTm+mxbPDfRFJRC0PhBJsVyxgdsjN3cTF2Ge7PTMT7vd1kN3TTo75J6u7NbNyRwNUW/ajmCIKtvyKCYEez97xNwz8/BzHH5UkmL/iIhJNH+HhNID9Km4YJByvNucf4QXSDXjvWmO7MuhqSw15j+pTnWLz+C+JiIgiN2E9ufceowhGMqKoKyJRIqdHYa28X30dtakQSuYSpTzyGy4x5BB8ppmPE9jNRfjKOuPSqcYtHsNDZICXK35tJTz3NrNfXk5DXiNHB0WEuWLtoLDnD7ylZ1HaMJl7oobUwlne9PHjW1Y2lYYlcaTEMdkToxdChQdtlwrGEwwhHDQj06mVI40N4deY0ZngtJvxoLs06MyPpF2y9GDq1aDu7sQxJcHC+F03VaaJD1hKy9wg7V83D3e1F1kaJqFKb7gILRlrryiiUijh6UMxNzeBJEKwWekwmzENZHDZis+iolCYQGbaFTz6P4INXZjPbZxV700pQGy0OmSBYjSgrisjPOY84TUJejWZQpfvFCxYDtyvOsW9LIBv2nadJb0Z5NYWtfl7MnP0G4fFSZDoLVnU5Z0XpXDj9PSvmrCa+qstOZjEgv5bBwbgDpBU1oR+h3QTzHarzfyVywyai/yxFpVZQkLyTd7yfZ+6SEI7l1aPvtb9oVBbyR7KIvLxz7I9cR2hSMV0D7ts663Bqv3GewzGfEbzSF0/3eWxOqcOCgFFbyaF1c3F1dsXT523WbdtHqiSLyzUyyo6HssBvF5faTPfFCyY1pakRvDnXh8AYMTX3WPozemnMPkRE+BYC/F7C6+X3OFDQjhUzTQWJBPu64zLJg4XLggjfkcAlVXd/pc2t5ZRWt9FWe4Go0JVE/lWJaUC8tSUHpy5lBflZmYglYsRpYi5Waujbu8WkpeJSOmKxGIlEgiQ9h2u1tzHoK0n8cCn+3+XSpmpDe29+bGY6FRXk/ZZEUuoZytT3FvrUW1FX5pGW1oclJuNMNtflemxY6VRV83e2BLFYcpcno5C6zoGPoSAgCN3cKoxnq38QySVd9+dCMLXj0PP3TXzgjbHsGMve2khC8Q3OxSdzzW7+XZFVpUhz8qnvHjJdD0QdfbGvokW/RLImIJbL2sGY4xd//QRr14QRFf01P4muo3fAs3WrKMvL5GzBrQcffaNrHbZi1jaQuieA5XtO0+pYTBi/84K1B12rEsVtHd1m+3AhmGlvKCErM4d6nUN8mJzxBGzcac4nOmgR20UNDDqLbBqcHv5XazwixplrriAxeBV7c9qozviK1St2kasaYnuf8w5VHyfDf5huruZE+Ea2x+4n5tvD5NbrRyQbd8+PiPI/BR9p8f8CIsy7fn/CmuEAAAAASUVORK5CYII=;" vertex="1" parent="1">
          <mxGeometry x="463" y="347.65" width="37" height="14.96" as="geometry" />
        </mxCell>
      </root>
    </mxGraphModel>
  </diagram>
</mxfile>
